<svg width="14" height="20" viewBox="0 0 14 20" fill="none" xmlns="http://www.w3.org/2000/svg">
<path d="M11.29 12.29L7 16.59L2.71 12.29C2.5217 12.1017 2.2663 11.9959 2 11.9959C1.7337 11.9959 1.47831 12.1017 1.29 12.29C1.1017 12.4783 0.995911 12.7337 0.995911 13C0.995911 13.2663 1.1017 13.5217 1.29 13.71L6.29 18.71C6.38297 18.8037 6.49357 18.8781 6.61543 18.9289C6.73728 18.9797 6.86799 19.0058 7 19.0058C7.13201 19.0058 7.26272 18.9797 7.38458 18.9289C7.50644 18.8781 7.61704 18.8037 7.71 18.71L12.71 13.71C12.8032 13.6168 12.8772 13.5061 12.9277 13.3842C12.9781 13.2624 13.0041 13.1319 13.0041 13C13.0041 12.8681 12.9781 12.7376 12.9277 12.6158C12.8772 12.4939 12.8032 12.3832 12.71 12.29C12.6168 12.1968 12.5061 12.1228 12.3843 12.0723C12.2624 12.0219 12.1319 11.9959 12 11.9959C11.8681 11.9959 11.7376 12.0219 11.6158 12.0723C11.4939 12.1228 11.3832 12.1968 11.29 12.29ZM2.71 7.71L7 3.41L11.29 7.71C11.383 7.80373 11.4936 7.87812 11.6154 7.92889C11.7373 7.97966 11.868 8.0058 12 8.0058C12.132 8.0058 12.2627 7.97966 12.3846 7.92889C12.5064 7.87812 12.617 7.80373 12.71 7.71C12.8037 7.61704 12.8781 7.50644 12.9289 7.38458C12.9797 7.26272 13.0058 7.13201 13.0058 7C13.0058 6.86799 12.9797 6.73728 12.9289 6.61542C12.8781 6.49356 12.8037 6.38296 12.71 6.29L7.71 1.29C7.61704 1.19627 7.50644 1.12188 7.38458 1.07111C7.26272 1.02034 7.13201 0.994202 7 0.994202C6.86799 0.994202 6.73728 1.02034 6.61543 1.07111C6.49357 1.12188 6.38297 1.19627 6.29 1.29L1.29 6.29C1.1017 6.4783 0.995911 6.7337 0.995911 7C0.995911 7.2663 1.1017 7.5217 1.29 7.71C1.47831 7.8983 1.7337 8.00409 2 8.00409C2.2663 8.00409 2.5217 7.8983 2.71 7.71Z" fill="#BF5002"/>
</svg>
