<svg width="20" height="13" fill="none" xmlns="http://www.w3.org/2000/svg"><path d="M8.783.037C4.868.254 1.682 1.542.494 3.386a3.399 3.399 0 0 0-.382.837c-.078.256-.09.354-.092.76-.002.535.055.799.278 1.266.578 1.217 2.03 2.256 4.093 2.93a16.14 16.14 0 0 0 2.851.643l.458.06-.263.267c-.357.362-.42.489-.42.851 0 .232.015.31.079.433.106.205.255.356.454.461.142.076.208.088.45.088.438 0 .448-.007 1.737-1.304C10.981 9.426 10.983 9.423 10.983 9c0-.423-.002-.426-1.242-1.672-.765-.769-1.17-1.152-1.287-1.217-.15-.083-.205-.094-.454-.094-.229 0-.31.015-.424.075-.212.113-.37.266-.469.455-.077.145-.089.211-.089.453-.001.315.064.486.259.692.095.1.098.108.032.108-.131 0-.987-.166-1.465-.284C3.436 6.92 1.816 5.774 2.03 4.817c.141-.629 1.083-1.36 2.437-1.893 2.583-1.016 6.524-1.21 9.54-.471 1.608.394 2.83.971 3.512 1.66.343.346.464.579.464.887 0 .291-.121.534-.425.855-.669.704-1.814 1.257-3.469 1.676-.291.074-.578.165-.64.203a1.008 1.008 0 0 0-.371 1.274c.171.349.528.574.905.569.206-.002.994-.195 1.613-.395 2.133-.687 3.632-1.773 4.153-3.009.192-.457.234-.671.231-1.19-.003-.404-.015-.505-.092-.76-.344-1.137-1.324-2.101-2.905-2.858C14.865.35 11.875-.134 8.783.037" fill="#fff" fill-rule="evenodd"/></svg>