<svg width="32" height="32" fill="none" xmlns="http://www.w3.org/2000/svg"><path d="M.421 2.139c-.268.158-.379.374-.406.789-.031.472.118.778.463.952.227.114.297.12 1.503.12h1.265l.056.28c.031.154.2 1.084.376 2.067.176.982.344 1.906.373 2.053.053.265 1.642 9 1.893 10.411.36 2.016.676 3.686.727 3.843.056.169.047.185-.282.541a3.442 3.442 0 0 0-.771 1.368c-.072.236-.096.48-.093.957.003.543.025.705.145 1.071.547 1.658 2.292 2.685 3.986 2.346a3.317 3.317 0 0 0 1.783-.955c.512-.509.781-.957.934-1.556.181-.705.134-1.625-.111-2.198L12.164 24h4.324c3.862 0 4.32.009 4.292.082a3.634 3.634 0 0 0-.268 1.385c-.001.649.074.982.354 1.573.302.636.938 1.274 1.587 1.593 1.011.496 2.083.496 3.094 0 .649-.319 1.285-.957 1.587-1.593.28-.591.355-.924.354-1.573-.002-.98-.329-1.737-1.06-2.456-.314-.309-.546-.483-.832-.624-.789-.39-.31-.37-8.409-.363-3.997.004-7.575-.01-7.951-.03l-.685-.036-.147-.832-.176-.979L8.2 20h8.615c8.23 0 8.63-.004 8.932-.099a1.97 1.97 0 0 0 1.242-1.094c.066-.15.432-2.019.962-4.924.96-5.253.946-5.127.637-5.756-.205-.416-.637-.821-1.055-.99l-.306-.124-10.698-.014-10.697-.014-.281-1.559c-.418-2.324-.444-2.401-.962-2.885-.511-.479-.544-.486-2.376-.501C.667 2.026.607 2.03.421 2.139M26.773 9.08c0 .037-.36 2.047-.8 4.467-.44 2.419-.8 4.417-.8 4.439 0 .022-3.898.041-8.663.041H7.848l-.057-.28c-.031-.154-.392-2.14-.804-4.414a989.741 989.741 0 0 0-.769-4.226c-.02-.089.496-.094 10.267-.094 8.228 0 10.288.014 10.288.067M9.714 24.196c.496.27.759.729.757 1.324-.001.442-.163.815-.468 1.084-.297.26-.505.344-.917.371-.324.021-.424.005-.667-.106-1.017-.466-1.221-1.756-.392-2.485a1.75 1.75 0 0 1 .501-.304 1.641 1.641 0 0 1 1.186.116m14.958-.028c.87.435 1.088 1.611.43 2.326-.341.369-.567.465-1.102.465-.535 0-.761-.096-1.102-.465-.744-.807-.343-2.173.716-2.439.29-.073.792-.019 1.058.113" fill-rule="evenodd" fill="#000"/></svg>