<svg width="20" height="20" viewBox="0 0 20 20" fill="none" xmlns="http://www.w3.org/2000/svg">
<g clip-path="url(#clip0_293_1203)">
<path fill-rule="evenodd" clip-rule="evenodd" d="M10.8334 8.33317C11.2936 8.33317 11.6667 8.70627 11.6667 9.1665V16.6665C11.6667 17.1267 11.2936 17.4998 10.8334 17.4998H3.33337C2.87314 17.4998 2.50004 17.1267 2.50004 16.6665V9.1665C2.50004 8.70627 2.87314 8.33317 3.33337 8.33317H10.8334ZM13.3334 9.1665C13.3334 7.78579 12.2141 6.6665 10.8334 6.6665H3.33337C1.95266 6.6665 0.833375 7.78579 0.833375 9.1665V16.6665C0.833375 18.0472 1.95266 19.1665 3.33337 19.1665H10.8334C12.2141 19.1665 13.3334 18.0472 13.3334 16.6665V9.1665Z" fill="#BF5002"/>
<path fill-rule="evenodd" clip-rule="evenodd" d="M16.6666 2.50016C16.8876 2.50016 17.0996 2.58796 17.2559 2.74424C17.4122 2.90052 17.5 3.11248 17.5 3.3335V10.8335C17.5 11.0545 17.4122 11.2665 17.2559 11.4228C17.0996 11.579 16.8876 11.6668 16.6666 11.6668H15.8333C15.3731 11.6668 15 12.0399 15 12.5002C15 12.9604 15.3731 13.3335 15.8333 13.3335H16.6666C17.3297 13.3335 17.9656 13.0701 18.4344 12.6013C18.9032 12.1324 19.1666 11.4965 19.1666 10.8335V3.3335C19.1666 2.67046 18.9032 2.03457 18.4344 1.56573C17.9656 1.09689 17.3297 0.833496 16.6666 0.833496H9.16663C8.50358 0.833496 7.8677 1.09689 7.39886 1.56573C6.93002 2.03457 6.66663 2.67045 6.66663 3.3335V4.16683C6.66663 4.62707 7.03972 5.00016 7.49996 5.00016C7.9602 5.00016 8.33329 4.62707 8.33329 4.16683V3.3335C8.33329 3.11248 8.42109 2.90052 8.57737 2.74424C8.73365 2.58796 8.94561 2.50016 9.16663 2.50016H16.6666Z" fill="#BF5002"/>
</g>
<defs>
<clipPath id="clip0_293_1203">
<rect width="20" height="20" fill="white" transform="matrix(-1 0 0 1 20 0)"/>
</clipPath>
</defs>
</svg>
