<svg width="20" height="22" fill="none" xmlns="http://www.w3.org/2000/svg"><path d="M9.393.034a2.956 2.956 0 0 0-2.168 1.583c-.19.377-.266.701-.282 1.2-.013.418-.006.5.069.789.221.856.841 1.608 1.605 1.946.099.043.196.111.217.149.025.048.034.274.027.693-.011.603-.014.629-.104.812a.985.985 0 0 1-.489.474c-.143.066-.221.071-1.368.087-1.361.018-1.34.015-1.611.265-.486.448-.362 1.263.236 1.557l.192.094 1.216.017c1.362.019 1.34.015 1.612.266.082.075.184.208.227.294l.078.157.009 2.816c.006 1.806-.002 2.896-.024 3.038-.075.484-.316.865-.62.981-.28.107-.708.019-1.982-.407-.843-.283-1.142-.413-1.6-.696a16.32 16.32 0 0 1-1.348-.99l-.131-.115.564-.448c.311-.246.651-.514.756-.595.104-.082.187-.151.183-.154-.004-.004-1.03-.308-2.281-.677a361.56 361.56 0 0 1-2.325-.691C.006 12.462 0 12.724 0 14.83v2.37l.783-.522c.431-.287.789-.516.794-.508l.206.297c.737 1.068 1.721 2.045 2.626 2.608.571.354 1.065.559 2.204.912.387.119.816.273.954.34.378.185.73.467 1.3 1.042.588.593.688.653 1.028.623.107-.01.245-.044.308-.077.062-.032.339-.287.614-.565.544-.551.924-.854 1.295-1.031.131-.063.56-.214.955-.336 1.118-.346 1.626-.559 2.23-.934.836-.519 1.918-1.606 2.62-2.632.088-.129.177-.232.198-.23.021.002.379.231.795.509l.757.505V14.83c0-1.974-.008-2.368-.045-2.353-.025.009-1.071.32-2.325.69-1.254.37-2.283.676-2.287.68-.004.003.322.266.725.583.403.318.74.59.749.605.036.058-1.04.867-1.585 1.192-.412.246-.581.317-1.46.611-1.303.437-1.707.522-1.984.416-.294-.113-.512-.429-.606-.881-.043-.208-.049-.651-.041-3.099l.009-2.857.076-.154a1.05 1.05 0 0 1 .532-.496c.164-.062.26-.067 1.287-.067.887 0 1.143-.01 1.277-.05.663-.197.901-1.04.441-1.562a1.134 1.134 0 0 0-.289-.227c-.154-.076-.184-.078-1.374-.094L11.55 7.75l-.189-.093a1.01 1.01 0 0 1-.468-.466c-.069-.129-.076-.196-.087-.779-.008-.447 0-.66.027-.712a.48.48 0 0 1 .195-.141c.858-.376 1.488-1.198 1.675-2.185.056-.295.021-.926-.069-1.241a3.023 3.023 0 0 0-.927-1.442c-.26-.223-.846-.525-1.174-.606-.263-.065-.88-.093-1.14-.051m.87 2.014a.962.962 0 0 1 .413 1.316c-.344.674-1.323.676-1.689.004-.3-.551.01-1.242.63-1.405.165-.044.47-.004.646.085" fill="#fff" fill-rule="evenodd"/></svg>