<svg width="178" height="38" fill="none" xmlns="http://www.w3.org/2000/svg"><path d="M116.326 1.372c-1.178.589-1.83 1.17-2.475 2.208l-.876 1.41-1.233-.56c-.683-.31-1.897-.56-2.717-.56-2.641 0-5.22 1.699-4.286 2.824.484.583 1.088.534 1.97-.16 1.596-1.255 3.419-1 6.216.871.857.573.973.585 1.409.148.262-.261.476-.78.476-1.152 0-.821 1.064-2.444 2.077-3.169.408-.291 1.39-.592 2.184-.668 1.612-.155 2.074-.461 1.92-1.272-.179-.941-2.71-.898-4.665.08m-87.846.314c-1.008.201-2.599 1.447-3.287 2.576-.708 1.161-.747 3.433-.083 4.832 1.479 3.117 6.094 3.737 8.386 1.127 3.369-3.838.021-9.534-5.016-8.535M.297 6.823v5.044h2.966c2.953 0 2.967-.004 2.967-.729 0-.699-.088-.732-2.151-.816l-2.151-.087-.09-1.409-.091-1.409H3.84c2.035 0 2.093-.021 2.093-.742 0-.72-.059-.742-2.076-.742H1.78v-2.67h2.225c2.176 0 2.225-.016 2.225-.741V1.78H.297v5.043m7.483-.074.082 4.969 2.773-.005c2.751-.005 2.78-.013 3.634-.969 1.018-1.139 1.114-2.333.273-3.401-.548-.698-.557-.809-.126-1.673.378-.757.4-1.117.118-1.968-.484-1.468-1.533-1.922-4.44-1.922H7.699l.081 4.969m8.833.074v5.044h.742c.709 0 .742-.079.742-1.78v-1.78l1.557-.001c2.894-.003 4.439-1.785 3.741-4.316-.443-1.605-1.667-2.208-4.482-2.209l-2.3-.001v5.043m-3.916-3.204c.458.458.458 1.501 0 1.958-.195.196-.996.356-1.78.356H9.493v-2.67h1.424c.784 0 1.585.161 1.78.356m8.714.135c.704.638.694 1.95-.021 2.597-.394.357-.949.482-1.854.417l-1.291-.093-.089-1.706-.089-1.706h1.401c.887 0 1.599.18 1.943.491m10.807.518c.823.823 1.009 1.235 1.009 2.24 0 2.498-1.654 4.086-3.938 3.779-2.13-.285-3.578-2.442-3.051-4.542.107-.43.579-1.165 1.048-1.634.718-.718 1.092-.852 2.388-.852 1.351 0 1.657.122 2.544 1.009M13.162 8.044c.885 1.263-.147 2.339-2.242 2.339H9.493V7.417h1.615c1.308 0 1.699.119 2.054.627m122.42 2.41c-.321.532-4.092 6.539-8.379 13.348l-7.795 12.38-1.73.006c-1.251.004-1.697.108-1.607.376.097.293 6.533.387 30.581.447 26.952.066 30.458.024 30.458-.371 0-.32-.322-.447-1.132-.447-1.126 0-1.143-.019-3.406-3.634a2342.611 2342.611 0 0 0-8.449-13.276l-6.175-9.641-10.891-.078-10.891-.078-.584.968m9.144 13.654c4.269 6.406 7.761 11.746 7.761 11.867 0 .12-2.236.217-4.969.215l-4.97-.004-1.222-1.851c-2.261-3.422-3.242-6.017-4.066-10.75l-.413-2.373-.191 1.483c-.762 5.933-1.77 8.887-4.073 11.937l-1.179 1.561h-4.769c-3.928 0-4.741-.072-4.612-.408.275-.717 14.585-23.312 14.768-23.319.096-.003 3.667 5.236 7.935 11.642m8.127-2.213c4.175 5.865 4.664 6.634 4.158 6.547-.275-.048-8.974-12.142-8.974-12.477 0-.693.816.312 4.816 5.93M.593 27.293v8.9h4.433l.083-3.914.083-3.914 2.486 3.914 2.485 3.914h2.335c1.57 0 2.335-.112 2.335-.343 0-.189-1.201-2.192-2.67-4.451-1.468-2.26-2.67-4.246-2.67-4.414 0-.168.909-1.669 2.02-3.336 1.111-1.667 2.323-3.531 2.694-4.143l.675-1.113H9.865l-2.337 3.635-2.336 3.634-.084-3.634-.083-3.635H.593v8.9m16.02-.148v8.752h11.301l-.088-2.003-.088-2.002-3.337-.084-3.338-.084v-2.651h5.934v-3.856h-5.934v-2.67H27.59v-4.154H16.613v8.752m13.35 0v8.752h4.45v-9.329l2.069 3.403c1.138 1.872 2.233 3.404 2.433 3.404.201 0 1.239-1.463 2.307-3.251l1.943-3.251.082 4.512.082 4.512h4.434V18.393h-4.311l-2.215 3.709c-1.219 2.039-2.285 3.706-2.369 3.703-.084-.003-1.124-1.672-2.31-3.708L34.4 18.393H29.963v8.752m20.767-.006v8.758h4.45V22.843h4.747v13.054h4.459l-.079-8.678-.079-8.677-6.749-.08-6.749-.08v8.757m16.317.006v8.752l1.854-.014 1.854-.014 2.967-4.27 2.966-4.27.082 4.284.083 4.284h4.434V18.393h-3.442l-3.1 4.473-3.1 4.472-.082-4.472-.082-4.473h-4.434v8.752m17.206 0v8.752h4.154V29.37H93.45V35.897h4.45v-17.53l-2.151.088-2.151.087-.084 3.189-.084 3.189h-5.023V18.393h-4.154v8.752m16.614 0v8.752h4.45V22.843h5.933v-4.45h-10.383v8.752m58.051-2.077c4.479 6.236 4.455 6.2 3.956 6.034-.532-.177-8.583-11.321-8.397-11.622.204-.33.059-.512 4.441 5.588" fill="#333" fill-rule="evenodd"/></svg>