<svg width="35" height="42" viewBox="0 0 35 42" fill="none" xmlns="http://www.w3.org/2000/svg">
<path fill-rule="evenodd" clip-rule="evenodd" d="M17.2298 0C13.823 0.00144603 10.4929 0.987324 7.66047 2.83308C4.82797 4.67884 2.62008 7.30169 1.3157 10.3703C0.0113149 13.4389 -0.331044 16.8156 0.331873 20.0738C0.994791 23.332 2.63324 26.3255 5.04024 28.6763C8.16169 31.7197 15.5068 36.1216 15.9421 40.7445C15.9421 41.0775 16.0778 41.3968 16.3193 41.6322C16.5608 41.8677 16.8883 42 17.2298 42C17.5714 42 17.8989 41.8677 18.1404 41.6322C18.3819 41.3968 18.5176 41.0775 18.5176 40.7445C18.9528 36.1191 26.2928 31.7272 29.4091 28.6914C31.8208 26.342 33.4637 23.3481 34.13 20.0882C34.7963 16.8284 34.4561 13.4491 33.1523 10.3779C31.8486 7.30653 29.6399 4.68122 26.8057 2.83395C23.9715 0.986685 20.639 0.000455088 17.2298 0Z" fill="#FF4433"/>
<path fill-rule="evenodd" clip-rule="evenodd" d="M17.2297 22.6948C18.4256 22.6943 19.5945 22.348 20.5886 21.6999C21.5827 21.0517 22.3574 20.1308 22.8147 19.0534C23.272 17.976 23.3913 16.7906 23.1577 15.647C22.9241 14.5035 22.348 13.4531 21.5022 12.6288C20.6564 11.8045 19.5789 11.2432 18.4059 11.0159C17.233 10.7887 16.0172 10.9056 14.9124 11.3519C13.8075 11.7982 12.8633 12.5539 12.1989 13.5235C11.5346 14.493 11.1799 15.6328 11.1799 16.7988C11.1797 17.5734 11.3359 18.3404 11.6399 19.0561C11.9437 19.7717 12.3894 20.4219 12.9513 20.9695C13.5132 21.5171 14.1802 21.9513 14.9143 22.2474C15.6484 22.5434 16.4352 22.6954 17.2297 22.6948Z" fill="#BF3326"/>
</svg>
