<svg width="17" height="15" viewBox="0 0 17 15" fill="none" xmlns="http://www.w3.org/2000/svg">
<path fill-rule="evenodd" clip-rule="evenodd" d="M6.64311 9.38595L6.64285 9.38576L6.64314 9.3855L6.64315 9.38533L6.64326 9.38539L13.8735 2.86066C14.1908 2.57903 13.8042 2.44169 13.3829 2.69714L4.45934 8.32693L0.604837 7.12388C-0.227565 6.86901 -0.233542 6.29701 0.791722 5.88578L15.8118 0.0940849C16.4979 -0.217363 17.16 0.258853 16.8981 1.30882L14.3402 13.3627C14.1615 14.2193 13.644 14.4242 12.9269 14.0285L9.03037 11.1497L7.15747 12.9708C7.15156 12.9766 7.14569 12.9823 7.13984 12.988C6.93036 13.1919 6.75705 13.3607 6.37781 13.3607L6.64311 9.38595Z" fill="#58585B"/>
</svg>
