<svg width="36" height="34" fill="none" xmlns="http://www.w3.org/2000/svg"><path d="M5.593 6.063c-.625.125-1.227.637-1.451 1.235-.113.303-.122.463-.122 2.229.001 1.179.025 1.994.066 2.143.096.354.395.79.703 1.025.169.129.466.266.786.363.703.212 1.158.464 1.538.854a2.92 2.92 0 0 1 .866 2.108c0 .787-.249 1.417-.796 2.017-.402.44-.761.659-1.413.863-.884.277-1.261.552-1.585 1.157-.133.249-.135.287-.135 2.383 0 2.119.001 2.131.142 2.419.201.407.671.849 1.079 1.014l.339.137h24.78l.339-.137c.408-.165.878-.607 1.079-1.014.141-.288.142-.3.142-2.419 0-2.096-.002-2.134-.135-2.383-.324-.605-.701-.88-1.585-1.157-.652-.204-1.011-.423-1.413-.863-.547-.6-.796-1.23-.796-2.017 0-.809.295-1.529.863-2.111.372-.381.841-.64 1.541-.851.32-.097.617-.234.786-.363.308-.235.607-.671.703-1.025.041-.149.065-.964.066-2.143 0-1.766-.009-1.926-.122-2.229-.172-.458-.524-.834-1.005-1.071l-.4-.197-12.302-.009c-6.765-.005-12.416.014-12.558.042m7.427 9.957V24H6v-3.107l.225-.041c.339-.063 1.055-.363 1.415-.593a5.274 5.274 0 0 0 2.209-3.009c.197-.732.183-1.855-.031-2.567-.421-1.399-1.329-2.513-2.537-3.114a5.983 5.983 0 0 0-.87-.347l-.381-.104-.016-1.539-.016-1.539h7.022v7.98m16.966-6.441-.016 1.539-.381.104c-.555.152-1.301.543-1.757.92-.782.646-1.452 1.71-1.707 2.708-.157.613-.144 1.763.026 2.4a5.276 5.276 0 0 0 2.209 3.009c.36.23 1.076.53 1.415.593l.225.041V24H15V8.04h15.002l-.016 1.539" fill-rule="evenodd" fill="#000"/></svg>