<svg width="10" height="20" fill="none" xmlns="http://www.w3.org/2000/svg"><path d="M.892.8a.925.925 0 0 0-.386.165c-.161.113-.37.339-.444.481L0 1.563v.286c0 .315-.002.307.121.493.044.065 1.338 1.371 3.773 3.808l3.707 3.709-3.627 3.766a821.348 821.348 0 0 0-3.742 3.9 1.564 1.564 0 0 0-.174.244L0 17.88v.579l.063.108c.081.141.362.425.501.505.369.216.722.169 1.058-.139.123-.112 8.059-8.356 8.177-8.493.046-.054.11-.148.143-.209L10 10.12v-.557l-.058-.111a1.473 1.473 0 0 0-.163-.228c-.057-.064-1.934-1.943-4.171-4.176C2.071 1.517 1.526.98 1.425.921A.802.802 0 0 0 .892.8" fill-rule="evenodd" fill="#000"/></svg>